{
.appVersion = "3108";
.formatVersion = 3;
date = "2022-01-03 13:35:23 +0000";
familyName = Etheirys;
fontMaster = (
{
id = m01;
metricValues = (
{
over = 16;
pos = 800;
},
{
over = -16;
},
{
over = -16;
pos = -200;
}
);
name = Regular;
}
);
glyphs = (
{
glyphname = A;
lastChange = "2022-01-03 13:40:43 +0000";
layers = (
{
layerId = m01;
shapes = (
{
attr = {
fillColor = (0,255);
};
closed = 1;
nodes = (
(178,800,o),
(171,728,o),
(130,700,c),
(82,668,o),
(30,674,o),
(30,649,c),
(30,614,o),
(30,600,o),
(30,600,c),
(129,600,l),
(130,0,l),
(130,0,o),
(184,0,o),
(205,0,c),
(230,0,o),
(230,100,o),
(270,100,c),
(320,100,o),
(380,0,o),
(480,0,c),
(580,0,o),
(780,150,o),
(780,250,c),
(780,350,o),
(630,500,o),
(530,500,c),
(430,500,o),
(255,366,o),
(255,366,c),
(255,530,l),
(255,530,o),
(549,530,o),
(630,530,c),
(680,530,o),
(730,660,o),
(680,660,c),
(630,660,o),
(255,660,o),
(255,660,c),
(255,660,o),
(255,700,o),
(255,754,c),
(255,778,o),
(255,800,o),
(230,800,c)
);
},
{
attr = {
fillColor = (0,255);
};
closed = 1;
nodes = (
(530,370,o),
(630,260,o),
(630,200,c),
(630,150,o),
(580,100,o),
(530,100,c),
(475,102,o),
(308,267,o),
(308,267,c),
(308,267,o),
(430,370,o),
(480,370,c)
);
}
);
width = 810;
}
);
unicode = 65;
},
{
glyphname = B;
lastChange = "2022-01-03 14:25:59 +0000";
layers = (
{
layerId = m01;
shapes = (
{
attr = {
fillColor = (0,255);
};
closed = 1;
nodes = (
(530,750,o),
(480,800,o),
(430,800,c),
(330,800,o),
(30,500,o),
(30,300,c),
(30,50,o),
(130,0,o),
(230,0,c),
(530,0,o),
(630,200,o),
(630,200,c),
(630,200,o),
(430,100,o),
(330,100,c),
(180,100,o),
(130,250,o),
(130,300,c),
(130,340,o),
(130,350,o),
(130,350,c),
(130,350,o),
(530,350,o),
(630,350,c),
(655,350,o),
(680,375,o),
(680,400,c),
(680,425,o),
(655,450,o),
(630,450,c),
(580,450,o),
(431,450,o),
(431,450,c),
(430,650,l),
(430,650,o),
(530,650,o),
(530,700,c)
);
},
{
attr = {
fillColor = (0,255);
};
closed = 1;
nodes = (
(329,450,l),
(153,450,l),
(153,450,o),
(170,537,o),
(233,594,c),
(282,638,o),
(330,650,o),
(330,650,c)
);
}
);
width = 710;
}
);
unicode = 66;
},
{
glyphname = C;
lastChange = "2022-01-04 07:27:22 +0000";
layers = (
{
layerId = m01;
shapes = (
{
attr = {
fillColor = (0,255);
};
closed = 1;
nodes = (
(530,800,o),
(430,700,o),
(430,650,c),
(429,623,o),
(530,624,o),
(530,600,c),
(531,542,o),
(530,450,o),
(530,450,c),
(530,450,o),
(130,450,o),
(80,450,c),
(55,450,o),
(30,425,o),
(30,400,c),
(30,350,o),
(111,193,o),
(165,138,c),
(209,93,o),
(311,8,o),
(429,0,c),
(529,0,o),
(629,0,o),
(629,0,c),
(629,0,o),
(630,599,o),
(630,700,c),
(630,750,o),
(630,800,o),
(580,800,c)
);
},
{
attr = {
fillColor = (0,255);
};
closed = 1;
nodes = (
(530,100,l),
(530,100,o),
(369,89,o),
(276,179,c),
(183,271,o),
(180,350,o),
(180,350,c),
(530,350,l)
);
}
);
width = 660;
}
);
unicode = 67;
},
{
glyphname = D;
lastChange = "2022-01-04 07:34:24 +0000";
layers = (
{
layerId = m01;
shapes = (
{
attr = {
fillColor = (0,255);
};
closed = 1;
nodes = (
(380,800,o),
(30,544,o),
(30,247,c),
(30,147,o),
(130,0,o),
(230,0,c),
(330,0,o),
(480,0,o),
(580,0,c),
(630,0,o),
(645,30,o),
(645,50,c),
(644,77,o),
(630,100,o),
(580,100,c),
(530,100,o),
(480,100,o),
(480,100,c),
(480,700,l),
(480,700,o),
(587,644,o),
(610,602,c),
(633,560,o),
(630,489,o),
(630,450,c),
(631,427,o),
(648,400,o),
(680,400,c),
(710,400,o),
(731,432,o),
(730,450,c),
(730,466,o),
(731,483,o),
(739,498,c),
(748,514,o),
(780,520,o),
(780,550,c),
(780,600,o),
(730,672,o),
(683,710,c),
(631,751,o),
(580,800,o),
(480,800,c)
);
},
{
attr = {
fillColor = (0,255);
};
closed = 1;
nodes = (
(380,100,l),
(380,100,o),
(156,98,o),
(156,250,c),
(156,447,o),
(380,662,o),
(380,662,c)
);
}
);
width = 810;
}
);
unicode = 68;
},
{
glyphname = E;
lastChange = "2022-01-04 07:36:54 +0000";
layers = (
{
layerId = m01;
shapes = (
{
attr = {
fillColor = (0,255);
};
closed = 1;
nodes = (
(183,800,o),
(30,700,o),
(30,650,c),
(30,600,o),
(106,556,o),
(153,555,c),
(304,554,o),
(366,683,o),
(482,662,c),
(632,635,o),
(652,454,o),
(652,454,c),
(407,446,l),
(325,359,l),
(666,373,l),
(666,373,o),
(691,119,o),
(482,82,c),
(408,68,o),
(317,146,o),
(257,175,c),
(213,197,o),
(120,89,o),
(158,68,c),
(203,43,o),
(405,-35,o),
(527,12,c),
(829,103,o),
(834,380,o),
(834,380,c),
(896,386,l),
(965,468,l),
(833,463,l),
(833,463,o),
(766,733,o),
(507,747,c),
(406,752,o),
(287,651,o),
(225,640,c),
(107,620,o),
(183,800,o),
(183,800,c)
);
}
);
width = 995;
}
);
unicode = 69;
},
{
glyphname = F;
lastChange = "2022-01-04 08:05:03 +0000";
layers = (
{
layerId = m01;
shapes = (
{
attr = {
fillColor = (0,255);
};
closed = 1;
nodes = (
(95,799,o),
(30,700,o),
(30,650,c),
(30,625,o),
(130,622,o),
(130,600,c),
(131,500,o),
(130,0,o),
(130,0,c),
(130,0,o),
(168,0,o),
(188,0,c),
(211,2,o),
(230,65,o),
(230,100,c),
(229,156,o),
(230,350,o),
(230,350,c),
(230,350,o),
(430,350,o),
(480,350,c),
(530,350,o),
(555,250,o),
(590,250,c),
(624,249,o),
(681,265,o),
(680,300,c),
(680,388,o),
(560,450,o),
(480,450,c),
(400,450,o),
(230,450,o),
(230,450,c),
(230,450,o),
(231,645,o),
(230,700,c),
(230,752,o),
(204,800,o),
(180,800,c),
(164,800,o),
(168,799,o),
(130,799,c)
);
}
);
width = 710;
}
);
unicode = 70;
},
{
glyphname = G;
lastChange = "2022-01-04 10:09:06 +0000";
layers = (
{
layerId = m01;
shapes = (
{
attr = {
fillColor = (0,255);
};
closed = 1;
nodes = (
(430,800,o),
(30,600,o),
(30,350,c),
(30,100,o),
(330,0,o),
(430,0,c),
(530,0,o),
(580,50,o),
(580,100,c),
(583,195,o),
(580,350,o),
(580,350,c),
(730,350,l),
(730,450,l),
(330,450,l),
(330,350,l),
(480,350,l),
(480,122,l),
(480,122,o),
(180,150,o),
(180,350,c),
(180,600,o),
(580,770,o),
(580,770,c),
(580,770,o),
(555,800,o),
(530,800,c)
);
}
);
width = 760;
}
);
unicode = 71;
},
{
glyphname = H;
lastChange = "2022-01-04 10:12:31 +0000";
layers = (
{
layerId = m01;
shapes = (
{
attr = {
fillColor = (0,255);
};
closed = 1;
nodes = (
(130,800,o),
(30,700,o),
(30,700,c),
(130,600,l),
(130,600,o),
(127,149,o),
(130,50,c),
(131,20,o),
(164,0,o),
(180,0,c),
(196,0,o),
(228,25,o),
(228,50,c),
(230,125,o),
(230,602,o),
(230,602,c),
(230,602,o),
(363,525,o),
(477,462,c),
(574,408,o),
(579,254,o),
(580,200,c),
(582,61,o),
(330,100,o),
(330,100,c),
(330,100,o),
(434,-1,o),
(530,0,c),
(628,2,o),
(730,57,o),
(730,150,c),
(730,302,o),
(604,421,o),
(604,421,c),
(604,421,o),
(730,500,o),
(730,600,c),
(730,700,o),
(630,800,o),
(530,800,c),
(480,800,o),
(430,750,o),
(430,750,c),
(430,750,o),
(630,700,o),
(630,550,c),
(630,500,o),
(563,462,o),
(563,462,c),
(228,649,l),
(228,649,o),
(230,664,o),
(229,699,c),
(228,747,o),
(220,800,o),
(180,800,c)
);
}
);
width = 760;
}
);
unicode = 72;
},
{
glyphname = K;
lastChange = "2022-01-04 13:00:32 +0000";
layers = (
{
layerId = m01;
shapes = (
{
attr = {
fillColor = (0,255);
};
closed = 1;
nodes = (
(132,800,o),
(30,738,o),
(30,700,c),
(30,666,o),
(106,652,o),
(107,598,c),
(108,539,o),
(65,312,o),
(118,342,c),
(146,358,o),
(188,456,o),
(254,546,c),
(325,642,o),
(436,726,o),
(475,726,c),
(525,725,o),
(512,594,o),
(530,553,c),
(545,517,o),
(580,476,o),
(561,464,c),
(525,443,o),
(344,437,o),
(327,368,c),
(307,289,o),
(312,192,o),
(336,98,c),
(354,29,o),
(530,0,o),
(530,0,c),
(530,0,o),
(453,54,o),
(438,100,c),
(422,149,o),
(416,261,o),
(438,322,c),
(459,379,o),
(541,362,o),
(592,393,c),
(633,417,o),
(702,444,o),
(692,500,c),
(683,550,o),
(668,565,o),
(651,617,c),
(624,699,o),
(628,799,o),
(530,800,c),
(427,801,o),
(232,661,o),
(232,661,c),
(232,661,o),
(229,801,o),
(180,800,c)
);
}
);
width = 723;
}
);
unicode = 75;
},
{
glyphname = L;
lastChange = "2022-01-04 14:00:28 +0000";
layers = (
{
layerId = m01;
shapes = (
{
attr = {
fillColor = (0,255);
};
closed = 1;
nodes = (
(355,800,o),
(326,765,o),
(293,741,c),
(267,723,o),
(231,717,o),
(230,700,c),
(229,677,o),
(231,649,o),
(248,632,c),
(264,615,o),
(330,630,o),
(330,600,c),
(330,570,o),
(330,450,o),
(330,450,c),
(330,450,o),
(230,451,o),
(181,450,c),
(157,450,o),
(130,425,o),
(130,400,c),
(130,375,o),
(155,350,o),
(180,350,c),
(224,349,o),
(330,350,o),
(330,350,c),
(330,100,l),
(330,100,o),
(180,100,o),
(80,100,c),
(55,100,o),
(30,75,o),
(30,50,c),
(30,25,o),
(55,0,o),
(80,0,c),
(180,0,o),
(430,0,o),
(530,0,c),
(555,0,o),
(580,24,o),
(580,49,c),
(580,74,o),
(555,100,o),
(530,100,c),
(505,100,o),
(430,100,o),
(430,100,c),
(430,350,l),
(430,350,o),
(446,351,o),
(530,350,c),
(555,350,o),
(580,375,o),
(580,400,c),
(580,425,o),
(553,450,o),
(530,450,c),
(505,450,o),
(430,450,o),
(430,450,c),
(430,450,o),
(430,600,o),
(430,700,c),
(430,737,o),
(430,800,o),
(380,800,c)
);
}
);
width = 610;
}
);
unicode = 76;
},
{
glyphname = M;
lastChange = "2022-01-04 14:29:46 +0000";
layers = (
{
layerId = m01;
shapes = (
{
attr = {
fillColor = (0,255);
};
closed = 1;
nodes = (
(155,800,o),
(139,737,o),
(116,707,c),
(91,673,o),
(30,626,o),
(30,600,c),
(31,574,o),
(130,578,o),
(130,550,c),
(130,403,o),
(130,100,o),
(130,100,c),
(130,100,o),
(30,100,o),
(30,50,c),
(30,0,o),
(129,-1,o),
(129,-1,c),
(330,0,l),
(330,0,o),
(430,0,o),
(430,50,c),
(430,100,o),
(330,100,o),
(330,100,c),
(230,100,l),
(230,100,o),
(230,240,o),
(230,340,c),
(230,361,o),
(275,406,o),
(295,388,c),
(356,332,o),
(530,0,o),
(598,0,c),
(633,0,o),
(636,-1,o),
(680,0,c),
(705,0,o),
(730,25,o),
(730,50,c),
(730,75,o),
(705,100,o),
(680,100,c),
(636,100,o),
(479,304,o),
(480,350,c),
(480,373,o),
(484,401,o),
(530,400,c),
(585,399,o),
(784,-1,o),
(878,-1,c),
(906,0,o),
(906,0,o),
(930,0,c),
(955,0,o),
(980,22,o),
(980,47,c),
(980,72,o),
(955,100,o),
(930,100,c),
(830,100,o),
(717,330,o),
(678,399,c),
(655,437,o),
(630,500,o),
(555,500,c),
(430,500,o),
(430,425,o),
(430,425,c),
(430,425,o),
(386,481,o),
(353,503,c),
(325,521,o),
(230,500,o),
(230,500,c),
(230,500,o),
(230,657,o),
(230,700,c),
(230,750,o),
(205,800,o),
(180,800,c)
);
}
);
width = 1010;
}
);
unicode = 77;
},
{
glyphname = N;
lastChange = "2022-01-04 16:08:27 +0000";
layers = (
{
layerId = m01;
shapes = (
{
attr = {
fillColor = (0,255);
};
closed = 1;
nodes = (
(180,800,o),
(178,748,o),
(151,721,c),
(115,685,o),
(80,675,o),
(80,650,c),
(80,625,o),
(180,650,o),
(180,600,c),
(180,562,o),
(180,450,o),
(180,450,c),
(180,450,o),
(106,450,o),
(80,450,c),
(55,450,o),
(30,425,o),
(30,400,c),
(30,375,o),
(55,350,o),
(80,350,c),
(130,350,o),
(180,350,o),
(180,350,c),
(180,350,o),
(179,100,o),
(180,50,c),
(180,25,o),
(205,0,o),
(230,0,c),
(255,0,o),
(280,25,o),
(280,50,c),
(281,99,o),
(280,165,o),
(280,165,c),
(280,165,o),
(498,0,o),
(580,0,c),
(730,0,o),
(780,100,o),
(780,200,c),
(779,299,o),
(781,299,o),
(780,400,c),
(780,450,o),
(630,600,o),
(630,600,c),
(630,600,o),
(780,600,o),
(830,600,c),
(855,600,o),
(880,625,o),
(880,650,c),
(880,675,o),
(855,700,o),
(830,700,c),
(731,700,o),
(590,700,o),
(530,700,c),
(480,700,o),
(455,650,o),
(455,600,c),
(455,550,o),
(547,541,o),
(584,499,c),
(621,458,o),
(680,400,o),
(680,350,c),
(680,300,o),
(630,150,o),
(530,150,c),
(330,150,o),
(280,350,o),
(280,350,c),
(280,350,o),
(331,350,o),
(380,350,c),
(405,350,o),
(430,375,o),
(430,400,c),
(430,425,o),
(405,450,o),
(380,450,c),
(352,450,o),
(280,450,o),
(280,450,c),
(280,450,o),
(280,600,o),
(280,700,c),
(280,746,o),
(280,800,o),
(230,800,c)
);
}
);
width = 910;
}
);
unicode = 78;
},
{
glyphname = O;
lastChange = "2022-01-04 16:22:29 +0000";
layers = (
{
layerId = m01;
shapes = (
{
attr = {
fillColor = (0,255);
};
closed = 1;
nodes = (
(159,799,o),
(-37,479,o),
(51,244,c),
(116,70,o),
(305,-1,o),
(408,0,c),
(604,2,o),
(747,157,o),
(749,349,c),
(751,486,o),
(667,801,o),
(407,800,c)
);
},
{
attr = {
fillColor = (0,255);
};
closed = 1;
nodes = (
(528,590,o),
(656,454,o),
(642,308,c),
(631,185,o),
(585,94,o),
(498,95,c),
(342,97,o),
(200,222,o),
(146,359,c),
(46,608,o),
(265,713,o),
(438,632,c)
);
}
);
width = 779;
}
);
unicode = 79;
},
{
glyphname = P;
lastChange = "2022-01-05 08:17:52 +0000";
layers = (
{
layerId = m01;
shapes = (
{
attr = {
fillColor = (0,255);
};
closed = 1;
nodes = (
(145,800,o),
(147,739,o),
(122,710,c),
(97,681,o),
(30,650,o),
(30,625,c),
(30,600,o),
(130,625,o),
(130,600,c),
(131,500,o),
(130,400,o),
(130,250,c),
(130,150,o),
(280,0,o),
(380,0,c),
(430,0,o),
(480,0,o),
(580,0,c),
(680,0,o),
(830,200,o),
(830,350,c),
(830,400,o),
(730,550,o),
(630,550,c),
(530,550,o),
(430,500,o),
(430,400,c),
(430,300,o),
(430,100,o),
(430,100,c),
(430,100,o),
(234,105,o),
(230,250,c),
(230,400,o),
(230,600,o),
(230,700,c),
(229,749,o),
(209,800,o),
(180,800,c)
);
},
{
attr = {
fillColor = (0,255);
};
closed = 1;
nodes = (
(530,400,o),
(554,446,o),
(584,432,c),
(617,416,o),
(730,300,o),
(730,250,c),
(730,200,o),
(680,100,o),
(630,100,c),
(580,100,o),
(530,100,o),
(530,100,c),
(530,100,o),
(530,300,o),
(530,350,c)
);
}
);
width = 860;
}
);
unicode = 80;
},
{
glyphname = R;
lastChange = "2022-01-05 08:25:01 +0000";
layers = (
{
layerId = m01;
shapes = (
{
attr = {
fillColor = (0,255);
};
closed = 1;
nodes = (
(155,800,o),
(149,754,o),
(111,718,c),
(76,685,o),
(30,660,o),
(30,650,c),
(30,625,o),
(130,625,o),
(130,600,c),
(130,500,o),
(130,100,o),
(130,50,c),
(130,25,o),
(155,0,o),
(180,0,c),
(205,0,o),
(230,25,o),
(230,50,c),
(230,100,o),
(230,300,o),
(230,400,c),
(230,450,o),
(430,475,o),
(480,475,c),
(525,475,o),
(564,423,o),
(564,400,c),
(565,350,o),
(430,300,o),
(430,250,c),
(430,200,o),
(425,-22,o),
(450,3,c),
(475,29,o),
(496,60,o),
(531,81,c),
(570,103,o),
(680,150,o),
(680,150,c),
(680,150,o),
(530,150,o),
(530,200,c),
(530,225,o),
(680,276,o),
(680,400,c),
(680,500,o),
(605,525,o),
(505,525,c),
(455,525,o),
(230,501,o),
(230,501,c),
(230,501,o),
(230,598,o),
(230,700,c),
(230,750,o),
(205,800,o),
(180,800,c)
);
}
);
width = 710;
}
);
unicode = 82;
},
{
glyphname = S;
lastChange = "2022-01-05 09:09:38 +0000";
layers = (
{
layerId = m01;
shapes = (
{
attr = {
fillColor = (0,255);
};
closed = 1;
nodes = (
(230,750,o),
(205,800,o),
(180,800,c),
(155,800,o),
(152,730,o),
(129,700,c),
(103,667,o),
(30,625,o),
(30,600,c),
(30,575,o),
(130,575,o),
(130,550,c),
(131,406,o),
(130,100,o),
(130,50,c),
(130,26,o),
(155,0,o),
(180,0,c),
(205,0,o),
(230,26,o),
(230,50,c),
(230,100,o),
(230,250,o),
(230,250,c),
(230,250,o),
(369,343,o),
(425,343,c),
(729,342,o),
(455,0,o),
(480,0,c),
(505,0,o),
(705,100,o),
(705,200,c),
(705,630,o),
(230,300,o),
(230,300,c),
(230,300,o),
(230,600,o),
(230,700,c)
);
}
);
width = 735;
}
);
unicode = 83;
},
{
glyphname = T;
lastChange = "2022-01-05 09:15:12 +0000";
layers = (
{
layerId = m01;
shapes = (
{
attr = {
fillColor = (0,255);
};
closed = 1;
nodes = (
(530,698,o),
(530,800,o),
(480,800,c),
(430,800,o),
(430,700,o),
(430,700,c),
(430,600,l),
(130,600,l),
(130,600,o),
(30,600,o),
(30,550,c),
(30,500,o),
(130,500,o),
(130,500,c),
(430,500,l),
(430,100,l),
(430,100,o),
(430,0,o),
(480,0,c),
(530,0,o),
(530,100,o),
(530,100,c),
(530,500,l),
(530,500,o),
(630,500,o),
(630,550,c),
(630,600,o),
(529,600,o),
(529,600,c),
(530,698,l)
);
}
);
width = 660;
}
);
unicode = 84;
},
{
glyphname = U;
lastChange = "2022-01-05 14:43:18 +0000";
layers = (
{
layerId = m01;
shapes = (
{
attr = {
fillColor = (0,255);
};
closed = 1;
nodes = (
(155,800,o),
(149,731,o),
(128,701,c),
(103,668,o),
(30,625,o),
(30,600,c),
(30,575,o),
(160,575,o),
(160,550,c),
(160,520,o),
(160,496,o),
(160,450,c),
(160,400,o),
(30,400,o),
(30,300,c),
(30,100,o),
(230,0,o),
(430,0,c),
(580,0,o),
(755,133,o),
(755,300,c),
(755,350,o),
(830,350,o),
(830,450,c),
(830,550,o),
(680,700,o),
(580,700,c),
(430,700,o),
(330,600,o),
(330,500,c),
(328,400,o),
(330,108,o),
(330,108,c),
(330,108,o),
(130,200,o),
(130,300,c),
(130,350,o),
(230,400,o),
(230,455,c),
(230,492,o),
(231,524,o),
(230,550,c),
(230,575,o),
(270,575,o),
(270,600,c),
(270,625,o),
(250,668,o),
(230,701,c),
(210,733,o),
(230,800,o),
(180,800,c)
);
},
{
attr = {
fillColor = (0,255);
};
closed = 1;
nodes = (
(655,300,l),
(655,300,o),
(636,186,o),
(603,153,c),
(570,120,o),
(430,100,o),
(430,100,c),
(430,300,l)
);
},
{
attr = {
fillColor = (0,255);
};
closed = 1;
nodes = (
(429,551,o),
(432,600,o),
(464,599,c),
(498,599,o),
(655,548,o),
(655,498,c),
(655,449,o),
(655,400,o),
(655,400,c),
(430,400,l),
(430,400,o),
(430,453,o),
(430,500,c)
);
}
);
width = 860;
}
);
unicode = 85;
},
{
glyphname = W;
lastChange = "2022-01-05 15:05:20 +0000";
layers = (
{
layerId = m01;
shapes = (
{
attr = {
fillColor = (0,255);
};
closed = 1;
nodes = (
(230,750,o),
(205,800,o),
(180,800,c),
(155,800,o),
(152,730,o),
(129,700,c),
(104,667,o),
(30,625,o),
(30,600,c),
(30,575,o),
(130,575,o),
(130,550,c),
(130,400,o),
(130,150,o),
(130,150,c),
(130,150,o),
(130,50,o),
(180,50,c),
(230,50,o),
(230,150,o),
(230,150,c),
(230,150,o),
(230,600,o),
(230,700,c)
);
},
{
attr = {
fillColor = (0,255);
};
closed = 1;
nodes = (
(530,700,o),
(505,750,o),
(480,750,c),
(455,750,o),
(449,698,o),
(429,673,c),
(408,648,o),
(355,625,o),
(355,600,c),
(355,575,o),
(430,575,o),
(430,550,c),
(430,398,o),
(427,304,o),
(430,200,c),
(430,150,o),
(380,100,o),
(330,100,c),
(305,100,o),
(255,50,o),
(255,25,c),
(255,0,o),
(305,0,o),
(330,0,c),
(380,0,o),
(405,0,o),
(430,0,c),
(480,0,o),
(530,50,o),
(530,100,c),
(530,200,o),
(530,500,o),
(530,650,c)
);
},
{
attr = {
fillColor = (0,255);
};
closed = 1;
nodes = (
(830,675,o),
(805,700,o),
(780,700,c),
(755,700,o),
(747,697,o),
(727,672,c),
(706,647,o),
(655,625,o),
(655,600,c),
(655,575,o),
(730,575,o),
(730,550,c),
(730,398,o),
(730,300,o),
(730,200,c),
(731,154,o),
(680,100,o),
(630,100,c),
(605,100,o),
(560,50,o),
(560,25,c),
(560,0,o),
(605,0,o),
(630,0,c),
(680,0,o),
(695,0,o),
(730,0,c),
(780,0,o),
(830,50,o),
(830,100,c),
(830,200,o),
(829,509,o),
(830,650,c)
);
}
);
width = 860;
}
);
unicode = 87;
},
{
glyphname = Z;
lastChange = "2022-01-05 15:08:56 +0000";
layers = (
{
layerId = m01;
shapes = (
{
attr = {
fillColor = (0,255);
};
closed = 1;
nodes = (
(211,800,o),
(176,796,o),
(180,775,c),
(193,715,o),
(230,720,o),
(230,720,c),
(760,722,l),
(577,458,l),
(577,458,o),
(506,566,o),
(325,519,c),
(229,494,o),
(30,300,o),
(30,200,c),
(30,100,o),
(80,0,o),
(180,0,c),
(214,0,o),
(294,12,o),
(329,50,c),
(383,108,o),
(540,297,o),
(540,297,c),
(540,297,o),
(554,237,o),
(563,204,c),
(571,171,o),
(575,100,o),
(575,100,c),
(480,100,l),
(480,100,o),
(430,100,o),
(430,50,c),
(430,0,o),
(480,0,o),
(480,0,c),
(780,0,l),
(780,0,o),
(830,0,o),
(830,50,c),
(830,100,o),
(780,100,o),
(780,100,c),
(705,102,l),
(705,102,o),
(709,231,o),
(679,317,c),
(663,363,o),
(629,415,o),
(629,415,c),
(629,415,o),
(747,580,o),
(809,678,c),
(829,709,o),
(830,738,o),
(830,750,c),
(830,800,o),
(780,800,o),
(780,800,c),
(780,800,o),
(327,800,o),
(230,800,c)
);
},
{
attr = {
fillColor = (0,255);
};
closed = 1;
nodes = (
(508,363,o),
(409,232,o),
(331,146,c),
(299,109,o),
(247,101,o),
(233,101,c),
(75,99,o),
(237,399,o),
(306,445,c),
(427,526,o),
(508,363,o),
(508,363,c)
);
}
);
width = 860;
}
);
unicode = 90;
},
{
glyphname = a;
lastChange = "2022-01-09 11:14:26 +0000";
layers = (
{
layerId = m01;
shapes = (
{
attr = {
fillColor = (0,255);
};
closed = 1;
nodes = (
(245,600,o),
(229,574,o),
(181,554,c),
(132,534,o),
(80,525,o),
(80,500,c),
(80,450,o),
(268,572,o),
(168,116,c),
(146,18,o),
(30,-200,o),
(30,-200,c),
(30,-200,o),
(168,-61,o),
(220,-8,c),
(267,38,o),
(297,123,o),
(297,123,c),
(297,123,o),
(437,0,o),
(530,0,c),
(610,1,o),
(720,125,o),
(720,200,c),
(720,500,o),
(307,301,o),
(307,301,c),
(307,301,o),
(314,328,o),
(314,344,c),
(314,360,o),
(310,400,o),
(310,400,c),
(630,400,l),
(730,500,l),
(305,500,l),
(305,500,o),
(300,600,o),
(270,600,c)
);
},
{
attr = {
fillColor = (0,255);
};
closed = 1;
nodes = (
(314,230,o),
(430,300,o),
(480,300,c),
(540,300,o),
(580,200,o),
(580,150,c),
(580,0,o),
(314,230,o),
(314,230,c)
);
}
);
width = 760;
}
);
unicode = 97;
},
{
glyphname = b;
lastChange = "2022-01-09 07:23:20 +0000";
layers = (
{
layerId = m01;
shapes = (
{
attr = {
fillColor = (0,255);
};
closed = 1;
nodes = (
(430,733,o),
(430,800,o),
(405,800,c),
(390,800,o),
(362,779,o),
(330,758,c),
(281,725,o),
(222,692,o),
(242,673,c),
(266,649,o),
(330,650,o),
(330,600,c),
(330,550,o),
(330,500,o),
(330,500,c),
(330,500,o),
(30,350,o),
(30,200,c),
(30,100,o),
(130,0,o),
(230,0,c),
(430,0,o),
(630,165,o),
(630,165,c),
(630,165,o),
(429,83,o),
(331,85,c),
(171,87,o),
(160,230,o),
(160,230,c),
(590,230,l),
(630,300,l),
(430,300,l),
(430,300,o),
(429,599,o),
(430,700,c)
);
},
{
attr = {
fillColor = (0,255);
};
closed = 1;
nodes = (
(330,475,o),
(329,406,o),
(330,350,c),
(330,335,o),
(330,300,o),
(300,300,c),
(233,299,o),
(163,301,o),
(163,301,c),
(163,301,o),
(193,367,o),
(232,400,c),
(272,435,o),
(330,475,o),
(330,475,c)
);
}
);
width = 660;
}
);
unicode = 98;
},
{
glyphname = c;
lastChange = "2022-01-09 07:29:11 +0000";
layers = (
{
layerId = m01;
shapes = (
{
attr = {
fillColor = (0,255);
};
closed = 1;
nodes = (
(555,550,o),
(530,600,o),
(480,600,c),
(430,600,o),
(400,525,o),
(400,500,c),
(400,475,o),
(431,476,o),
(431,451,c),
(431,426,o),
(431,347,o),
(431,347,c),
(431,347,o),
(30,410,o),
(30,140,c),
(30,-200,o),
(430,-200,o),
(430,-200,c),
(430,-200,o),
(145,-160,o),
(145,140,c),
(145,342,o),
(429,299,o),
(429,299,c),
(429,299,o),
(430,150,o),
(430,100,c),
(430,75,o),
(430,60,o),
(480,60,c),
(530,60,o),
(530,75,o),
(530,100,c),
(530,150,o),
(529,302,o),
(530,350,c),
(530,400,o),
(555,450,o),
(555,500,c)
);
}
);
width = 585;
}
);
unicode = 99;
},
{
glyphname = e;
lastChange = "2022-01-09 07:33:53 +0000";
layers = (
{
layerId = m01;
shapes = (
{
attr = {
fillColor = (0,255);
};
closed = 1;
nodes = (
(130,600,o),
(30,455,o),
(30,430,c),
(30,340,o),
(55,515,o),
(255,515,c),
(430,515,o),
(451,318,o),
(451,318,c),
(275,300,l),
(180,200,l),
(463,229,l),
(463,229,o),
(461,76,o),
(334,48,c),
(271,34,o),
(230,30,o),
(230,15,c),
(230,0,o),
(291,0,o),
(330,0,c),
(576,3,o),
(600,245,o),
(600,245,c),
(695,255,l),
(730,350,l),
(593,333,l),
(593,333,o),
(580,600,o),
(330,600,c)
);
}
);
width = 760;
}
);
unicode = 101;
},
{
glyphname = f;
lastChange = "2022-01-09 07:39:04 +0000";
layers = (
{
layerId = m01;
shapes = (
{
attr = {
fillColor = (0,255);
};
closed = 1;
nodes = (
(179,545,o),
(180,600,o),
(130,600,c),
(105,600,o),
(87,575,o),
(69,545,c),
(50,513,o),
(30,475,o),
(30,450,c),
(30,425,o),
(80,425,o),
(80,400,c),
(80,300,o),
(80,-100,o),
(80,-100,c),
(80,-100,o),
(80,-200,o),
(130,-200,c),
(180,-200,o),
(180,-100,o),
(180,-100,c),
(180,350,l),
(180,350,o),
(282,349,o),
(380,250,c),
(427,204,o),
(440,100,o),
(480,100,c),
(530,100,o),
(530,150,o),
(530,200,c),
(530,380,o),
(180,380,o),
(180,380,c),
(180,380,o),
(181,463,o),
(180,500,c)
);
}
);
width = 560;
}
);
unicode = 102;
},
{
glyphname = g;
lastChange = "2022-01-09 12:56:39 +0000";
layers = (
{
layerId = m01;
shapes = (
{
attr = {
fillColor = (0,255);
};
closed = 1;
nodes = (
(830,600,o),
(780,600,o),
(780,600,c),
(780,600,o),
(530,600,o),
(380,600,c),
(230,600,o),
(30,400,o),
(30,200,c),
(30,-100,o),
(455,-200,o),
(480,-200,c),
(630,-200,o),
(180,-100,o),
(180,200,c),
(180,400,o),
(280,500,o),
(380,500,c),
(480,500,o),
(480,500,o),
(480,500,c),
(480,500,o),
(480,200,o),
(480,150,c),
(480,125,o),
(505,100,o),
(530,100,c),
(555,100,o),
(580,125,o),
(580,150,c),
(580,200,o),
(580,500,o),
(580,500,c),
(780,500,l),
(780,500,o),
(830,500,o),
(830,550,c)
);
}
);
width = 860;
}
);
unicode = 103;
},
{
glyphname = h;
lastChange = "2022-01-09 23:03:56 +0000";
layers = (
{
layerId = m01;
shapes = (
{
attr = {
fillColor = (0,255);
};
closed = 1;
nodes = (
(230,750,o),
(230,800,o),
(184,800,c),
(156,800,o),
(30,660,o),
(30,630,c),
(30,615,o),
(80,615,o),
(80,600,c),
(80,500,o),
(80,0,o),
(80,0,c),
(230,100,l),
(230,200,l),
(230,200,o),
(430,200,o),
(430,165,c),
(430,90,o),
(330,0,o),
(330,0,c),
(330,0,o),
(580,50,o),
(580,225,c),
(580,275,o),
(330,275,o),
(330,275,c),
(330,275,o),
(465,408,o),
(559,501,c),
(595,535,o),
(630,575,o),
(630,575,c),
(630,600,o),
(630,600,o),
(580,600,c),
(555,600,o),
(530,600,o),
(530,600,c),
(230,300,l),
(230,300,o),
(230,600,o),
(230,700,c)
);
}
);
width = 660;
}
);
unicode = 104;
},
{
glyphname = i;
lastChange = "2022-01-10 12:54:26 +0000";
layers = (
{
layerId = m01;
shapes = (
{
attr = {
fillColor = (0,255);
};
closed = 1;
nodes = (
(230,595,o),
(205,600,o),
(180,600,c),
(155,600,o),
(141,534,o),
(107,500,c),
(74,468,o),
(30,450,o),
(30,400,c),
(30,375,o),
(130,375,o),
(130,350,c),
(130,250,o),
(130,150,o),
(130,100,c),
(130,50,o),
(78,0,o),
(78,0,c),
(78,0,o),
(230,25,o),
(230,100,c),
(230,200,o),
(230,395,o),
(230,545,c)
);
}
);
width = 260;
}
);
unicode = 105;
},
{
glyphname = l;
lastChange = "2022-01-10 13:01:42 +0000";
layers = (
{
layerId = m01;
shapes = (
{
attr = {
fillColor = (0,255);
};
closed = 1;
nodes = (
(280,750,o),
(255,800,o),
(230,800,c),
(180,800,o),
(105,750,o),
(105,700,c),
(105,650,o),
(180,700,o),
(180,600,c),
(180,500,o),
(180,349,o),
(180,349,c),
(80,334,l),
(30,219,l),
(180,240,l),
(180,0,l),
(430,0,l),
(430,0,o),
(480,0,o),
(480,50,c),
(480,100,o),
(430,100,o),
(430,100,c),
(280,100,l),
(280,253,l),
(380,269,l),
(430,383,l),
(280,361,l),
(280,361,o),
(280,600,o),
(280,700,c)
);
}
);
width = 510;
}
);
unicode = 108;
},
{
glyphname = m;
lastChange = "2022-01-10 13:38:15 +0000";
layers = (
{
layerId = m01;
shapes = (
{
attr = {
fillColor = (0,255);
};
closed = 1;
nodes = (
(780,75,o),
(756,100,o),
(730,100,c),
(675,101,o),
(580,400,o),
(480,400,c),
(380,400,o),
(342,302,o),
(342,302,c),
(342,302,o),
(305,400,o),
(230,400,c),
(205,400,o),
(180,350,o),
(180,350,c),
(180,350,o),
(180,400,o),
(180,500,c),
(180,550,o),
(155,600,o),
(130,600,c),
(80,600,o),
(30,575,o),
(30,550,c),
(30,525,o),
(80,525,o),
(80,500,c),
(80,400,o),
(80,100,o),
(80,100,c),
(80,100,o),
(30,100,o),
(30,50,c),
(30,0,o),
(80,0,o),
(80,0,c),
(280,0,l),
(280,0,o),
(330,0,o),
(330,50,c),
(330,98,o),
(280,100,o),
(280,100,c),
(180,100,l),
(180,100,o),
(180,150,o),
(180,200,c),
(180,225,o),
(205,275,o),
(230,250,c),
(320,150,o),
(380,0,o),
(430,0,c),
(455,0,o),
(530,0,o),
(530,0,c),
(530,0,o),
(580,0,o),
(580,50,c),
(580,100,o),
(530,100,o),
(530,100,c),
(530,100,o),
(505,100,o),
(480,100,c),
(430,100,o),
(367,245,o),
(367,245,c),
(367,245,o),
(409,275,o),
(431,275,c),
(530,273,o),
(630,0,o),
(680,0,c),
(705,0,o),
(705,0,o),
(730,0,c),
(755,0,o),
(780,25,o),
(780,50,c)
);
}
);
width = 810;
}
);
unicode = 109;
},
{
glyphname = zero;
lastChange = "2022-01-06 13:50:32 +0000";
layers = (
{
layerId = m01;
shapes = (
{
attr = {
fillColor = (0,255);
};
closed = 1;
nodes = (
(278,800,o),
(30,550,o),
(30,350,c),
(30,215,o),
(181,0,o),
(380,0,c),
(580,-1,o),
(830,195,o),
(830,450,c),
(830,643,o),
(629,801,o),
(465,800,c)
);
},
{
attr = {
fillColor = (0,255);
};
closed = 1;
nodes = (
(454,737,o),
(687,539,o),
(688,302,c),
(688,198,o),
(631,100,o),
(533,100,c),
(227,100,o),
(182,360,o),
(182,360,c),
(580,360,l),
(640,450,l),
(176,450,l),
(176,450,o),
(173,606,o),
(237,636,c)
);
}
);
width = 860;
}
);
unicode = 48;
},
{
glyphname = one;
lastChange = "2022-01-06 14:12:08 +0000";
layers = (
{
layerId = m01;
shapes = (
{
attr = {
fillColor = (0,255);
};
closed = 1;
nodes = (
(330,750,o),
(330,800,o),
(305,800,c),
(280,800,o),
(130,700,o),
(130,675,c),
(130,650,o),
(230,648,o),
(230,600,c),
(232,501,o),
(230,300,o),
(230,200,c),
(230,100,o),
(30,0,o),
(30,0,c),
(30,0,o),
(330,0,o),
(330,200,c),
(330,300,o),
(330,400,o),
(330,545,c),
(330,595,o),
(388,624,o),
(430,625,c),
(630,629,o),
(630,500,o),
(630,450,c),
(630,400,o),
(730,500,o),
(730,550,c),
(730,600,o),
(598,671,o),
(530,675,c),
(463,679,o),
(330,650,o),
(330,650,c),
(330,650,o),
(330,669,o),
(330,700,c)
);
}
);
width = 760;
}
);
unicode = 49;
},
{
glyphname = two;
lastChange = "2022-01-06 14:29:04 +0000";
layers = (
{
layerId = m01;
shapes = (
{
attr = {
fillColor = (0,255);
};
closed = 1;
nodes = (
(330,742,o),
(330,800,o),
(305,800,c),
(280,800,o),
(130,700,o),
(130,675,c),
(130,650,o),
(230,650,o),
(230,600,c),
(230,500,o),
(230,302,o),
(230,200,c),
(230,102,o),
(30,0,o),
(30,0,c),
(30,0,o),
(330,0,o),
(330,200,c),
(330,300,l),
(330,375,l),
(505,345,l),
(505,345,o),
(581,420,o),
(545,425,c),
(503,431,o),
(330,450,o),
(330,450,c),
(330,450,o),
(330,524,o),
(330,540,c),
(330,591,o),
(387,619,o),
(429,620,c),
(629,624,o),
(631,491,o),
(631,441,c),
(631,399,o),
(730,500,o),
(730,550,c),
(730,600,o),
(598,671,o),
(530,675,c),
(463,679,o),
(330,650,o),
(330,650,c),
(330,650,o),
(331,671,o),
(330,700,c)
);
}
);
width = 760;
}
);
unicode = 50;
},
{
glyphname = three;
lastChange = "2022-01-06 14:28:28 +0000";
layers = (
{
layerId = m01;
shapes = (
{
attr = {
fillColor = (0,255);
};
closed = 1;
nodes = (
(330,742,o),
(330,800,o),
(305,800,c),
(280,800,o),
(130,700,o),
(130,675,c),
(130,650,o),
(230,650,o),
(230,600,c),
(230,500,o),
(230,302,o),
(230,200,c),
(230,102,o),
(30,0,o),
(30,0,c),
(30,0,o),
(330,0,o),
(330,200,c),
(330,201,o),
(510,200,o),
(510,200,c),
(510,200,o),
(575,257,o),
(547,262,c),
(524,266,o),
(330,300,o),
(330,300,c),
(330,375,l),
(505,345,l),
(505,345,o),
(581,420,o),
(545,425,c),
(503,431,o),
(330,450,o),
(330,450,c),
(330,450,o),
(330,524,o),
(330,540,c),
(330,591,o),
(387,619,o),
(429,620,c),
(629,624,o),
(631,491,o),
(631,441,c),
(631,399,o),
(730,500,o),
(730,550,c),
(730,600,o),
(598,671,o),
(530,675,c),
(463,679,o),
(330,650,o),
(330,650,c),
(330,650,o),
(331,671,o),
(330,700,c)
);
}
);
width = 760;
}
);
unicode = 51;
},
{
glyphname = four;
lastChange = "2022-01-06 15:47:55 +0000";
layers = (
{
layerId = m01;
shapes = (
{
attr = {
fillColor = (0,255);
};
closed = 1;
nodes = (
(30,700,o),
(130,800,o),
(230,800,c),
(387,800,o),
(580,450,o),
(580,450,c),
(730,450,l),
(780,350,l),
(630,350,l),
(630,350,o),
(768,127,o),
(804,69,c),
(814,52,o),
(830,30,o),
(830,15,c),
(829,0,o),
(814,0,o),
(804,0,c),
(704,0,o),
(180,0,o),
(180,0,c),
(130,100,l),
(130,100,o),
(529,102,o),
(679,102,c),
(688,102,o),
(685,118,o),
(680,125,c),
(653,167,o),
(530,350,o),
(530,350,c),
(380,350,l),
(330,450,l),
(480,450,l),
(480,450,o),
(352,688,o),
(271,659,c),
(92,595,o),
(230,350,o),
(230,350,c),
(230,350,o),
(30,500,o),
(30,600,c)
);
}
);
width = 860;
}
);
unicode = 52;
},
{
glyphname = five;
lastChange = "2022-01-07 12:48:35 +0000";
layers = (
{
layerId = m01;
shapes = (
{
attr = {
fillColor = (0,255);
};
closed = 1;
nodes = (
(417,800,o),
(330,700,o),
(330,650,c),
(330,625,o),
(405,649,o),
(441,609,c),
(472,572,o),
(497,477,o),
(497,477,c),
(497,477,o),
(30,200,o),
(30,100,c),
(30,50,o),
(80,0,o),
(130,0,c),
(180,0,o),
(330,25,o),
(330,50,c),
(330,75,o),
(215,104,o),
(230,148,c),
(281,299,o),
(522,402,o),
(522,402,c),
(522,402,o),
(560,299,o),
(572,199,c),
(584,101,o),
(607,2,o),
(630,2,c),
(673,2,o),
(729,96,o),
(730,135,c),
(731,150,o),
(721,187,o),
(706,236,c),
(667,376,o),
(597,621,o),
(564,703,c),
(547,746,o),
(517,800,o),
(467,800,c)
);
}
);
width = 760;
}
);
unicode = 53;
},
{
glyphname = six;
lastChange = "2022-01-06 15:48:24 +0000";
layers = (
{
layerId = m01;
shapes = (
{
attr = {
fillColor = (0,255);
};
closed = 1;
nodes = (
(830,500,o),
(630,350,o),
(630,350,c),
(630,350,o),
(768,595,o),
(589,659,c),
(508,688,o),
(380,450,o),
(380,450,c),
(530,450,l),
(480,350,l),
(330,350,l),
(330,350,o),
(207,167,o),
(180,125,c),
(175,118,o),
(172,102,o),
(181,102,c),
(331,102,o),
(730,100,o),
(730,100,c),
(680,0,l),
(680,0,o),
(156,0,o),
(56,0,c),
(46,0,o),
(31,0,o),
(30,15,c),
(30,30,o),
(46,52,o),
(56,69,c),
(92,127,o),
(230,350,o),
(230,350,c),
(80,350,l),
(130,450,l),
(280,450,l),
(280,450,o),
(473,800,o),
(630,800,c),
(730,800,o),
(830,700,o),
(830,600,c)
);
}
);
width = 860;
}
);
unicode = 54;
},
{
glyphname = seven;
lastChange = "2022-01-07 12:56:19 +0000";
layers = (
{
layerId = m01;
shapes = (
{
attr = {
fillColor = (0,255);
};
closed = 1;
nodes = (
(254,746,o),
(255,800,o),
(205,800,c),
(175,800,o),
(57,702,o),
(34,673,c),
(11,644,o),
(105,665,o),
(105,615,c),
(106,0,l),
(106,0,o),
(181,63,o),
(225,63,c),
(275,63,o),
(305,0,o),
(405,0,c),
(505,0,o),
(580,150,o),
(580,200,c),
(580,300,o),
(505,400,o),
(430,400,c),
(355,400,o),
(255,300,o),
(255,300,c),
(255,300,o),
(255,600,o),
(255,700,c)
);
},
{
attr = {
fillColor = (0,255);
};
closed = 1;
nodes = (
(455,285,o),
(455,145,o),
(455,100,c),
(455,25,o),
(255,150,o),
(255,200,c),
(255,250,o),
(305,285,o),
(355,285,c)
);
}
);
width = 610;
}
);
unicode = 55;
},
{
glyphname = eight;
lastChange = "2022-01-07 12:55:48 +0000";
layers = (
{
layerId = m01;
shapes = (
{
attr = {
fillColor = (0,255);
};
closed = 1;
nodes = (
(429,746,o),
(430,800,o),
(380,800,c),
(350,800,o),
(232,702,o),
(209,673,c),
(186,644,o),
(280,665,o),
(280,615,c),
(280,565,o),
(280,450,o),
(280,450,c),
(280,450,o),
(180,450,o),
(130,450,c),
(106,450,o),
(30,350,o),
(30,350,c),
(280,350,l),
(281,0,l),
(281,0,o),
(356,63,o),
(400,63,c),
(450,63,o),
(480,0,o),
(580,0,c),
(680,0,o),
(755,150,o),
(755,200,c),
(755,300,o),
(680,400,o),
(605,400,c),
(530,400,o),
(430,300,o),
(430,300,c),
(430,300,o),
(430,600,o),
(430,700,c)
);
},
{
attr = {
fillColor = (0,255);
};
closed = 1;
nodes = (
(630,285,o),
(630,145,o),
(630,100,c),
(630,25,o),
(430,150,o),
(430,200,c),
(430,250,o),
(480,285,o),
(530,285,c)
);
}
);
width = 785;
}
);
unicode = 56;
},
{
glyphname = nine;
lastChange = "2022-01-07 12:55:10 +0000";
layers = (
{
layerId = m01;
shapes = (
{
attr = {
fillColor = (0,255);
};
closed = 1;
nodes = (
(429,746,o),
(430,800,o),
(380,800,c),
(350,800,o),
(232,702,o),
(209,673,c),
(186,644,o),
(280,665,o),
(280,615,c),
(280,565,o),
(280,450,o),
(280,450,c),
(280,450,o),
(180,450,o),
(130,450,c),
(106,450,o),
(30,350,o),
(30,350,c),
(280,350,l),
(280,300,l),
(280,300,o),
(175,300,o),
(105,300,c),
(80,300,o),
(30,201,o),
(30,201,c),
(280,200,l),
(281,0,l),
(281,0,o),
(356,63,o),
(400,63,c),
(450,63,o),
(480,0,o),
(580,0,c),
(680,0,o),
(755,150,o),
(755,200,c),
(755,300,o),
(680,400,o),
(605,400,c),
(530,400,o),
(430,300,o),
(430,300,c),
(430,300,o),
(430,600,o),
(430,700,c)
);
},
{
attr = {
fillColor = (0,255);
};
closed = 1;
nodes = (
(630,285,o),
(630,145,o),
(630,100,c),
(630,25,o),
(430,150,o),
(430,200,c),
(430,250,o),
(480,285,o),
(530,285,c)
);
}
);
width = 785;
}
);
unicode = 57;
},
